HIERARCHY
ROOT Hips
{
	OFFSET 0.000000 83.214638 0.000000
	CHANNELS 6 Xposition Yposition Zposition Xrotation Yrotation Zrotation
	JOINT Pelvis
	{
		OFFSET 0.000000 0.000000 0.000000
		CHANNELS 3 Xrotation Yrotation Zrotation
		JOINT LeftUpLeg
		{
			OFFSET 8.479700 -4.795502 -0.379100
			CHANNELS 3 Xrotation Yrotation Zrotation
			JOINT LeftLeg
			{
				OFFSET 0.024144 -32.555107 0.112900
				CHANNELS 3 Xrotation Yrotation Zrotation
				JOINT LeftFoot
				{
					OFFSET -0.024144 -32.638630 -3.012600
					CHANNELS 3 Xrotation Yrotation Zrotation
					JOINT LeftToeBase
					{
						OFFSET 0.970200 -13.225400 11.864200
						CHANNELS 3 Xrotation Yrotation Zrotation
						End Site
						{
							OFFSET 0.000000 12.319262 0.000000
						}
					}
					JOINT LFootTongue
					{
						OFFSET 1.142400 -1.059800 6.665200
						CHANNELS 3 Xrotation Yrotation Zrotation
						End Site
						{
							OFFSET 0.000000 12.319262 0.000000
						}
					}
				}
				JOINT LeftPantLeg
				{
					OFFSET 0.918482 -16.533964 -2.284700
					CHANNELS 3 Xrotation Yrotation Zrotation
					End Site
					{
						OFFSET 0.350399 24.744368 0.000000
					}
				}
			}
		}
		JOINT RightUpLeg
		{
			OFFSET -8.479700 -4.795502 -0.379100
			CHANNELS 3 Xrotation Yrotation Zrotation
			JOINT RightLeg
			{
				OFFSET -0.023144 -32.555092 0.112900
				CHANNELS 3 Xrotation Yrotation Zrotation
				JOINT RightFoot
				{
					OFFSET 0.023144 -32.638641 -3.012700
					CHANNELS 3 Xrotation Yrotation Zrotation
					JOINT RightToeBase
					{
						OFFSET -0.970200 -13.225400 11.864200
						CHANNELS 3 Xrotation Yrotation Zrotation
						End Site
						{
							OFFSET 0.000000 12.319244 0.000000
						}
					}
					JOINT RFootTongue
					{
						OFFSET -1.142200 -1.059800 6.665200
						CHANNELS 3 Xrotation Yrotation Zrotation
						End Site
						{
							OFFSET 0.000000 12.319243 0.000000
						}
					}
				}
				JOINT RightPantLeg
				{
					OFFSET -0.919482 -16.533978 -2.284800
					CHANNELS 3 Xrotation Yrotation Zrotation
					End Site
					{
						OFFSET -0.350400 24.744419 0.000000
					}
				}
			}
		}
	}
	JOINT Spine
	{
		OFFSET 0.000000 7.722000 1.166200
		CHANNELS 3 Xrotation Yrotation Zrotation
		JOINT Spine1
		{
			OFFSET 0.000000 12.024101 0.248800
			CHANNELS 3 Xrotation Yrotation Zrotation
			JOINT Spine2
			{
				OFFSET 0.000000 11.502998 -0.491200
				CHANNELS 3 Xrotation Yrotation Zrotation
				JOINT Neck
				{
					OFFSET 0.000000 18.430702 -3.123100
					CHANNELS 3 Xrotation Yrotation Zrotation
					JOINT Head
					{
						OFFSET 0.000000 9.051102 1.034000
						CHANNELS 3 Xrotation Yrotation Zrotation
						JOINT HairB
						{
							OFFSET 0.208400 24.786102 24.822300
							CHANNELS 3 Xrotation Yrotation Zrotation
							End Site
							{
								OFFSET 0.000000 32.263779 0.000000
							}
						}
						JOINT HairA
						{
							OFFSET -7.081100 24.428299 23.196600
							CHANNELS 3 Xrotation Yrotation Zrotation
							End Site
							{
								OFFSET 0.000000 32.263779 0.000000
							}
						}
						JOINT Hat
						{
							OFFSET 16.728800 15.048294 -15.439601
							CHANNELS 3 Xrotation Yrotation Zrotation
							End Site
							{
								OFFSET 0.000000 32.263779 0.000000
							}
						}
					}
				}
				JOINT LeftShoulder
				{
					OFFSET 6.197800 13.665199 -4.064700
					CHANNELS 3 Xrotation Yrotation Zrotation
					JOINT LeftArm
					{
						OFFSET 7.778100 -0.187103 -1.709300
						CHANNELS 3 Xrotation Yrotation Zrotation
						JOINT LeftForeArm
						{
							OFFSET 22.049376 0.000000 0.000000
							CHANNELS 3 Xrotation Yrotation Zrotation
							JOINT LeftHand
							{
								OFFSET 23.009392 0.000000 0.000000
								CHANNELS 3 Xrotation Yrotation Zrotation
								JOINT LeftHandThumb1
								{
									OFFSET 3.507191 -2.063065 3.133727
									CHANNELS 3 Xrotation Yrotation Zrotation
									JOINT LeftHandThumb2
									{
										OFFSET 3.101337 -1.790558 1.790558
										CHANNELS 3 Xrotation Yrotation Zrotation
										JOINT LeftHandThumb3
										{
											OFFSET 3.058640 -1.765907 1.765906
											CHANNELS 3 Xrotation Yrotation Zrotation
											End Site
											{
												OFFSET -0.415260 3.926476 -0.049563
											}
										}
									}
								}
								JOINT LeftHandIndex1
								{
									OFFSET 11.334419 -0.901459 3.706815
									CHANNELS 3 Xrotation Yrotation Zrotation
									JOINT LeftHandIndex2
									{
										OFFSET 3.283112 0.000000 0.000000
										CHANNELS 3 Xrotation Yrotation Zrotation
										JOINT LeftHandIndex3
										{
											OFFSET 3.323853 0.000000 0.000000
											CHANNELS 3 Xrotation Yrotation Zrotation
											End Site
											{
												OFFSET -1.135597 3.097809 0.402452
											}
										}
									}
								}
								JOINT LeftHandMiddle1
								{
									OFFSET 11.335861 0.000000 0.000000
									CHANNELS 3 Xrotation Yrotation Zrotation
									JOINT LeftHandMiddle2
									{
										OFFSET 3.410492 0.000000 0.000000
										CHANNELS 3 Xrotation Yrotation Zrotation
										JOINT LeftHandMiddle3
										{
											OFFSET 3.312172 0.000000 0.000000
											CHANNELS 3 Xrotation Yrotation Zrotation
											End Site
											{
												OFFSET -1.150200 3.080154 0.400270
											}
										}
									}
								}
								JOINT LeftHandRing1
								{
									OFFSET 11.514786 -0.013176 -3.003090
									CHANNELS 3 Xrotation Yrotation Zrotation
									JOINT LeftHandRing2
									{
										OFFSET 3.053307 0.000000 0.000000
										CHANNELS 3 Xrotation Yrotation Zrotation
										JOINT LeftHandRing3
										{
											OFFSET 3.295807 0.000000 0.000000
											CHANNELS 3 Xrotation Yrotation Zrotation
											End Site
											{
												OFFSET -1.281006 3.013344 0.375733
											}
										}
									}
								}
								JOINT LeftHandPinky1
								{
									OFFSET 10.518692 -0.960396 -5.730441
									CHANNELS 3 Xrotation Yrotation Zrotation
									JOINT LeftHandPinky2
									{
										OFFSET 2.861649 0.000000 0.000000
										CHANNELS 3 Xrotation Yrotation Zrotation
										JOINT LeftHandPinky3
										{
											OFFSET 2.863380 0.000000 0.000000
											CHANNELS 3 Xrotation Yrotation Zrotation
											End Site
											{
												OFFSET -0.843597 2.711159 0.369971
											}
										}
									}
								}
							}
							JOINT LSleeve
							{
								OFFSET 6.676277 -0.344902 -1.011730
								CHANNELS 3 Xrotation Yrotation Zrotation
								End Site
								{
									OFFSET 0.000000 14.885353 0.000000
								}
							}
						}
					}
				}
				JOINT RightShoulder
				{
					OFFSET -6.197800 13.665199 -4.064700
					CHANNELS 3 Xrotation Yrotation Zrotation
					JOINT RightArm
					{
						OFFSET -7.778100 -0.187103 -1.709300
						CHANNELS 3 Xrotation Yrotation Zrotation
						JOINT RightForeArm
						{
							OFFSET -22.049376 0.000000 0.000000
							CHANNELS 3 Xrotation Yrotation Zrotation
							JOINT RightHand
							{
								OFFSET -23.009392 0.000000 0.000000
								CHANNELS 3 Xrotation Yrotation Zrotation
								JOINT RightHandThumb1
								{
									OFFSET -3.507191 -2.063065 3.133727
									CHANNELS 3 Xrotation Yrotation Zrotation
									JOINT RightHandThumb2
									{
										OFFSET -3.101337 -1.790558 1.790558
										CHANNELS 3 Xrotation Yrotation Zrotation
										JOINT RightHandThumb3
										{
											OFFSET -3.058640 -1.765907 1.765906
											CHANNELS 3 Xrotation Yrotation Zrotation
											End Site
											{
												OFFSET 0.415260 3.926476 -0.049563
											}
										}
									}
								}
								JOINT RightHandIndex1
								{
									OFFSET -11.334419 -0.901459 3.706815
									CHANNELS 3 Xrotation Yrotation Zrotation
									JOINT RightHandIndex2
									{
										OFFSET -3.283112 0.000000 0.000000
										CHANNELS 3 Xrotation Yrotation Zrotation
										JOINT RightHandIndex3
										{
											OFFSET -3.323853 0.000000 0.000000
											CHANNELS 3 Xrotation Yrotation Zrotation
											End Site
											{
												OFFSET 1.135597 3.097809 0.402452
											}
										}
									}
								}
								JOINT RightHandMiddle1
								{
									OFFSET -11.335861 0.000000 0.000000
									CHANNELS 3 Xrotation Yrotation Zrotation
									JOINT RightHandMiddle2
									{
										OFFSET -3.410492 0.000000 0.000000
										CHANNELS 3 Xrotation Yrotation Zrotation
										JOINT RightHandMiddle3
										{
											OFFSET -3.312172 0.000000 0.000000
											CHANNELS 3 Xrotation Yrotation Zrotation
											End Site
											{
												OFFSET 1.150200 3.080154 0.400270
											}
										}
									}
								}
								JOINT RightHandRing1
								{
									OFFSET -11.514786 -0.013176 -3.003090
									CHANNELS 3 Xrotation Yrotation Zrotation
									JOINT RightHandRing2
									{
										OFFSET -3.053307 0.000000 0.000000
										CHANNELS 3 Xrotation Yrotation Zrotation
										JOINT RightHandRing3
										{
											OFFSET -3.295807 0.000000 0.000000
											CHANNELS 3 Xrotation Yrotation Zrotation
											End Site
											{
												OFFSET 1.281006 3.013344 0.375733
											}
										}
									}
								}
								JOINT RightHandPinky1
								{
									OFFSET -10.518692 -0.960396 -5.730441
									CHANNELS 3 Xrotation Yrotation Zrotation
									JOINT RightHandPinky2
									{
										OFFSET -2.861649 0.000000 0.000000
										CHANNELS 3 Xrotation Yrotation Zrotation
										JOINT RightHandPinky3
										{
											OFFSET -2.863380 0.000000 0.000000
											CHANNELS 3 Xrotation Yrotation Zrotation
											End Site
											{
												OFFSET 0.843597 2.711159 0.369971
											}
										}
									}
								}
							}
							JOINT RSleeve
							{
								OFFSET -6.676277 -0.344902 -1.011730
								CHANNELS 3 Xrotation Yrotation Zrotation
								End Site
								{
									OFFSET 0.000000 14.885353 0.000000
								}
							}
						}
					}
				}
				JOINT Backpack
				{
					OFFSET 0.000000 -2.471497 36.677502
					CHANNELS 3 Xrotation Yrotation Zrotation
					End Site
					{
						OFFSET 0.000000 20.427315 0.000000
					}
				}
				JOINT Hood
				{
					OFFSET 0.000000 18.754097 -10.431000
					CHANNELS 3 Xrotation Yrotation Zrotation
					JOINT Hood1
					{
						OFFSET 0.000000 -5.011002 -7.685901
						CHANNELS 3 Xrotation Yrotation Zrotation
						End Site
						{
							OFFSET 0.000000 9.175140 0.000000
						}
					}
				}
				JOINT LHoodieString
				{
					OFFSET 5.250500 16.397697 3.089900
					CHANNELS 3 Xrotation Yrotation Zrotation
					JOINT LHoodieString1
					{
						OFFSET 0.257700 -6.364304 3.694600
						CHANNELS 3 Xrotation Yrotation Zrotation
						JOINT LHoodieString2
						{
							OFFSET 0.000000 -9.643799 2.679100
							CHANNELS 3 Xrotation Yrotation Zrotation
							End Site
							{
								OFFSET 0.000000 10.009018 0.000000
							}
						}
					}
				}
				JOINT RHoodieString
				{
					OFFSET -5.250500 16.397697 3.089900
					CHANNELS 3 Xrotation Yrotation Zrotation
					JOINT RHoodieString1
					{
						OFFSET -0.257700 -6.364304 3.694600
						CHANNELS 3 Xrotation Yrotation Zrotation
						JOINT RHoodieString2
						{
							OFFSET 0.000000 -9.643799 2.679100
							CHANNELS 3 Xrotation Yrotation Zrotation
							End Site
							{
								OFFSET 0.000000 10.009018 0.000000
							}
						}
					}
				}
			}
			JOINT LBackpack_Strap
			{
				OFFSET 15.223200 -7.719803 -6.610900
				CHANNELS 3 Xrotation Yrotation Zrotation
				End Site
				{
					OFFSET 0.000000 16.040596 0.000000
				}
			}
			JOINT RBackpack_Strap
			{
				OFFSET -15.223000 -7.719803 -6.610900
				CHANNELS 3 Xrotation Yrotation Zrotation
				End Site
				{
					OFFSET 0.000000 16.040596 0.000000
				}
			}
		}
	}
	JOINT BoyFacialAnim_Joint
	{
		OFFSET 1.000000 -82.208099 -1.550900
		CHANNELS 3 Xrotation Yrotation Zrotation
		End Site
		{
			OFFSET 0.000000 30.012791 0.000000
		}
	}
}
MOTION
Frames: 5
Frame Time: 0.033333
-0.744515 73.655159 0.114765 -28.266287 68.464081 18.873962 0.000000 0.000001 0.000000 -29.330840 11.459682 38.731807 60.660652 -5.253311 -0.580900 -13.967510 -10.757386 -12.045879 0.000001 -0.000000 -0.000000 0.000001 -0.000000 -0.000000 0.000003 0.000001 -0.000000 -19.714649 -14.898434 -23.039860 36.260692 8.901384 0.523420 -6.691906 0.510661 10.921077 0.000000 -0.000001 0.000000 0.000000 -0.000001 0.000000 0.000002 -0.000005 0.000000 4.209758 -0.638066 -3.515440 8.622936 -2.416574 -0.147034 8.568690 -2.600917 -0.127238 0.943575 -6.151411 3.597237 6.215542 -26.920887 8.303347 0.000000 0.000001 -0.000000 0.000000 0.000001 -0.000000 0.000000 0.000001 -0.000000 0.976146 -4.006546 0.017615 -17.973247 -47.080518 -49.683196 0.000047 -105.647556 0.000055 -7.111914 10.811797 5.374074 3.241011 7.097996 13.847249 3.939058 7.948708 0.746828 0.000003 -0.000001 0.000000 0.141243 1.390225 -11.601209 0.186488 1.594777 -13.338430 -0.000005 -0.000002 -0.000002 0.191667 1.616467 -13.523335 0.234305 1.784360 -14.959964 -0.000000 -0.000000 0.000000 0.318272 2.073040 -17.454099 0.321103 2.082050 -17.532727 0.000001 0.000001 -0.000002 2.254666 6.530368 -23.757374 0.389500 -1.776592 -19.756054 0.000001 0.000000 -0.000000 0.000001 0.000003 -0.000002 1.063027 1.782605 5.353521 -36.150221 -29.879274 51.058611 0.000259 86.715030 -0.000268 26.070166 17.781995 -19.733800 -4.576666 -15.723831 -11.540943 4.637204 -8.634121 -0.225410 -0.000000 0.000003 -0.000002 0.156326 -1.469060 12.147922 0.083834 -1.078653 8.887615 -0.000001 -0.000001 -0.000000 0.155045 -1.463073 12.097668 0.101159 -1.184139 9.765294 0.000001 -0.000001 -0.000000 0.200624 -1.661494 13.769617 0.112897 -1.250435 10.317886 -0.000002 -0.000001 0.000007 0.323042 -2.098676 17.499401 0.098858 -1.170663 9.653046 0.000003 -0.000003 -0.000002 -0.000001 0.000003 0.000002 0.000000 0.000000 0.000000 0.000000 0.000000 0.000000 0.000000 0.000000 0.000000 0.000000 0.000000 0.000000 0.000000 0.000000 0.000000 -0.000000 0.000000 -0.000000 0.000000 0.000000 0.000000 0.000000 0.000000 0.000000 -0.000000 0.000000 -0.000000 0.000000 -0.000001 0.000001 0.000000 -0.000001 0.000001 0.000000 0.000001 0.000000 
-0.709279 73.871269 0.133071 -26.582932 66.975804 17.527276 -0.000000 0.000001 -0.000001 -28.206579 11.401657 37.896406 60.135205 -5.204208 -0.618418 -13.142740 -11.103319 -12.109233 0.000000 0.000000 -0.000000 0.000000 0.000000 -0.000000 0.000001 -0.000000 -0.000001 -20.508015 -14.422062 -22.978484 36.326020 8.404791 0.448599 -5.848164 0.784686 9.797237 -0.000000 0.000001 -0.000000 -0.000000 0.000001 -0.000000 -0.000000 -0.000000 -0.000001 4.225056 -0.622327 -3.504197 8.677176 -2.444484 0.133384 8.620009 -2.632428 0.155687 1.590213 -5.916256 3.447131 6.940455 -26.070093 8.214021 -0.000001 -0.000001 -0.000000 -0.000001 -0.000001 -0.000000 -0.000001 -0.000001 -0.000000 0.989620 -4.011061 -0.059840 -15.781017 -46.298270 -47.119440 0.000099 -107.409362 0.000105 -9.325034 9.962493 6.122913 3.241011 7.097993 13.847251 3.939064 7.948709 0.746827 0.000001 -0.000001 0.000003 0.141239 1.390226 -11.601207 0.186484 1.594778 -13.338435 -0.000003 0.000000 -0.000000 0.191664 1.616467 -13.523333 0.234306 1.784361 -14.959965 0.000001 -0.000000 0.000002 0.318271 2.073040 -17.454094 0.321104 2.082052 -17.532730 0.000001 -0.000001 -0.000004 2.254667 6.530368 -23.757367 0.389504 -1.776591 -19.756056 -0.000003 0.000001 0.000002 0.000002 0.000000 0.000000 1.016779 1.676484 5.060492 -36.435518 -28.922897 50.921417 0.002247 86.209282 -0.002260 25.394718 18.398916 -16.934194 -4.576666 -15.723833 -11.540943 4.637208 -8.634121 -0.225409 -0.000002 0.000002 -0.000002 0.156321 -1.469056 12.147917 0.083832 -1.078645 8.887618 0.000001 0.000002 0.000006 0.155043 -1.463071 12.097672 0.101160 -1.184140 9.765291 0.000000 0.000002 -0.000003 0.200625 -1.661494 13.769618 0.112899 -1.250436 10.317892 -0.000000 -0.000000 0.000000 0.323039 -2.098675 17.499401 0.098858 -1.170664 9.653041 -0.000000 -0.000001 -0.000002 -0.000002 0.000000 0.000001 0.000000 0.000000 -0.000000 0.000000 0.000000 -0.000000 0.000000 0.000000 -0.000000 0.000000 0.000000 -0.000000 0.000000 0.000000 0.000000 0.000000 0.000000 -0.000000 0.000000 0.000000 -0.000000 0.000000 0.000000 0.000000 0.000000 0.000000 -0.000000 -0.000000 -0.000001 -0.000000 -0.000000 -0.000001 -0.000000 -0.000000 0.000001 -0.000001 
-0.655121 74.278511 0.165603 -24.497402 64.914391 15.793175 -0.000000 -0.000001 -0.000001 -26.189653 11.797259 36.681066 58.633404 -5.380341 -0.599331 -12.894917 -10.416086 -12.417572 -0.000001 -0.000000 -0.000000 -0.000001 -0.000000 -0.000000 0.000001 0.000000 -0.000000 -21.062295 -13.984716 -22.768311 35.266384 8.191154 0.422928 -3.758568 0.882557 9.709350 0.000000 -0.000001 0.000000 0.000000 -0.000001 0.000000 -0.000000 -0.000005 0.000000 4.194642 -0.527633 -3.428470 8.626793 -2.266940 0.268027 8.572611 -2.449791 0.290707 1.986371 -5.663313 3.173934 7.231317 -25.265773 8.144115 -0.000000 -0.000001 -0.000000 -0.000000 -0.000001 -0.000000 -0.000000 -0.000001 -0.000000 1.016841 -4.143192 -0.203882 -15.104617 -44.626807 -45.832550 0.000044 -108.946387 0.000034 -9.934375 9.075833 6.429255 3.241012 7.097992 13.847245 3.939058 7.948709 0.746830 0.000001 -0.000001 -0.000000 0.141239 1.390225 -11.601207 0.186487 1.594779 -13.338432 0.000000 -0.000001 -0.000000 0.191663 1.616467 -13.523334 0.234305 1.784359 -14.959970 0.000002 -0.000000 0.000000 0.318268 2.073040 -17.454093 0.321102 2.082052 -17.532730 0.000002 -0.000001 -0.000002 2.254666 6.530366 -23.757370 0.389495 -1.776592 -19.756054 -0.000002 0.000001 0.000002 0.000000 0.000000 -0.000001 0.973881 1.543775 4.634097 -37.320201 -27.952105 50.422249 -0.000066 85.689183 0.000080 24.355082 18.898230 -13.779568 -4.576662 -15.723828 -11.540941 4.637203 -8.634115 -0.225413 -0.000000 0.000003 -0.000004 0.156324 -1.469050 12.147917 0.083831 -1.078642 8.887619 -0.000004 0.000001 0.000005 0.155044 -1.463067 12.097666 0.101155 -1.184139 9.765300 0.000001 0.000002 0.000005 0.200628 -1.661488 13.769617 0.112897 -1.250432 10.317883 0.000002 -0.000000 0.000002 0.323043 -2.098673 17.499397 0.098858 -1.170658 9.653047 -0.000002 0.000000 0.000000 0.000001 -0.000001 0.000001 -0.000000 -0.000001 -0.000000 -0.000000 -0.000001 -0.000000 -0.000000 -0.000001 -0.000000 -0.000000 -0.000001 -0.000000 -0.000000 -0.000001 -0.000001 -0.000000 0.000001 -0.000000 -0.000000 -0.000001 -0.000000 -0.000000 -0.000001 -0.000001 -0.000000 0.000001 -0.000000 -0.000000 0.000001 -0.000000 -0.000000 0.000001 -0.000000 -0.000000 -0.000001 -0.000001 
-0.605889 74.786987 0.199122 -22.416360 62.599230 14.101031 -0.000001 -0.000001 -0.000000 -23.468141 12.561611 35.144424 56.200849 -5.558907 -0.539320 -13.389624 -8.736173 -13.024596 0.000000 0.000001 -0.000000 0.000000 0.000001 -0.000000 -0.000001 0.000000 -0.000001 -21.214883 -13.679098 -22.358798 33.204609 8.082560 0.412627 -1.404539 0.839623 10.075750 -0.000000 -0.000001 -0.000000 -0.000000 -0.000001 -0.000000 0.000001 0.000000 -0.000001 4.142982 -0.354874 -3.311492 8.518384 -1.885603 0.247060 8.472775 -2.055886 0.268002 2.053105 -5.438971 2.850952 6.971776 -24.631990 8.086902 -0.000000 0.000000 0.000000 -0.000000 0.000000 0.000000 -0.000000 0.000000 0.000000 1.085324 -4.458536 -0.415813 -15.829272 -42.376713 -45.756909 0.000079 -110.097814 0.000090 -9.116787 8.384646 6.309004 3.241012 7.097994 13.847251 3.939059 7.948708 0.746826 -0.000000 -0.000002 -0.000001 0.141240 1.390224 -11.601204 0.186491 1.594777 -13.338428 -0.000005 -0.000003 -0.000002 0.191665 1.616467 -13.523337 0.234303 1.784359 -14.959964 0.000002 -0.000000 -0.000001 0.318270 2.073040 -17.454093 0.321095 2.082051 -17.532732 0.000001 -0.000001 -0.000002 2.254663 6.530366 -23.757368 0.389499 -1.776593 -19.756054 -0.000002 -0.000002 0.000001 0.000000 0.000000 -0.000001 0.927779 1.428836 4.160512 -38.617261 -27.146496 49.711182 0.001366 85.214096 -0.001392 23.011534 19.189910 -10.736230 -4.576659 -15.723828 -11.540941 4.637202 -8.634128 -0.225406 -0.000002 0.000001 -0.000001 0.156325 -1.469053 12.147917 0.083832 -1.078651 8.887615 0.000002 -0.000001 -0.000004 0.155045 -1.463070 12.097665 0.101157 -1.184140 9.765288 -0.000001 0.000005 0.000001 0.200625 -1.661493 13.769615 0.112900 -1.250428 10.317884 -0.000000 0.000001 0.000004 0.323043 -2.098674 17.499399 0.098855 -1.170662 9.653040 0.000001 -0.000002 -0.000002 0.000001 -0.000002 -0.000002 -0.000000 0.000002 -0.000000 -0.000000 0.000002 -0.000000 -0.000000 0.000002 -0.000000 -0.000000 0.000002 -0.000000 -0.000000 0.000002 -0.000000 -0.000000 0.000003 -0.000001 -0.000000 0.000002 -0.000000 -0.000000 0.000002 -0.000000 -0.000000 0.000003 -0.000001 -0.000000 0.000000 0.000000 -0.000000 0.000000 0.000000 -0.000001 -0.000001 -0.000000 
-0.552302 75.260124 0.198787 -20.414904 59.960612 12.552289 -0.000001 -0.000000 -0.000000 -20.654299 13.316889 33.392576 53.806270 -5.385719 -0.467203 -13.821805 -7.041578 -13.644377 -0.000001 0.000000 -0.000000 -0.000001 0.000000 -0.000000 0.000000 -0.000001 -0.000001 -21.501731 -13.274018 -21.981007 31.059073 8.309664 0.424586 1.112689 0.807173 10.486939 0.000000 0.000002 0.000000 0.000000 0.000002 0.000000 0.000000 0.000001 0.000000 4.162027 -0.177960 -3.181732 8.550261 -1.490316 0.254631 8.513110 -1.649748 0.274267 1.920505 -5.185623 2.473281 6.462143 -23.889008 7.973951 0.000001 -0.000001 -0.000000 0.000001 -0.000001 -0.000000 0.000001 -0.000001 -0.000000 1.178374 -4.886448 -0.686325 -16.529994 -39.847464 -45.588784 0.000114 -111.448566 0.000128 -8.553271 7.836006 6.133347 3.241017 7.097993 13.847253 3.939057 7.948708 0.746826 0.000000 -0.000001 0.000002 0.141243 1.390226 -11.601204 0.186483 1.594778 -13.338434 -0.000001 0.000000 -0.000002 0.191666 1.616465 -13.523332 0.234314 1.784360 -14.959967 0.000003 -0.000001 -0.000002 0.318269 2.073040 -17.454093 0.321095 2.082051 -17.532732 0.000004 -0.000000 -0.000000 2.254660 6.530370 -23.757368 0.389501 -1.776594 -19.756054 -0.000002 0.000002 0.000000 0.000002 -0.000000 0.000000 0.885484 1.379959 3.698369 -39.881519 -26.207726 49.326195 0.000226 84.582310 -0.000235 21.465777 19.411362 -7.940578 -4.576666 -15.723823 -11.540943 4.637202 -8.634125 -0.225408 -0.000002 0.000001 -0.000001 0.156323 -1.469051 12.147917 0.083835 -1.078644 8.887619 -0.000003 0.000006 0.000003 0.155042 -1.463067 12.097665 0.101156 -1.184140 9.765293 0.000001 -0.000001 0.000003 0.200626 -1.661486 13.769614 0.112899 -1.250431 10.317887 0.000001 -0.000003 0.000002 0.323045 -2.098670 17.499395 0.098853 -1.170663 9.653048 0.000001 -0.000002 -0.000004 0.000002 -0.000002 0.000002 -0.000001 -0.000002 0.000000 -0.000001 -0.000002 0.000000 -0.000001 -0.000002 0.000000 -0.000001 -0.000002 0.000000 -0.000001 -0.000002 0.000000 -0.000000 -0.000002 0.000000 -0.000001 -0.000002 0.000000 -0.000001 -0.000002 0.000000 -0.000000 -0.000002 0.000000 -0.000000 0.000004 -0.000001 -0.000000 0.000004 -0.000001 -0.000001 -0.000000 -0.000000 
